# xmcd
#
# Track frame offsets: 
#        150
#        13026
#        35211
#        50768
#        64999
#        85283
#        105917
#        122055
#        139357
#        155831
#        172631
#        188831
#        209317
#        223427
#        240932
#
# Disc length: 3454 seconds
#
# Revision: 0
# Processed by: cddbd v1.5.2PL0 Copyright (c) Steve Scherf et al.
# Submitted via: ExactAudioCopy v1.0b2
#
DISCID=db0d7c0f
DTITLE=Flavio - La Trova en tu Mirada
DYEAR=2012
DGENRE=Ballad
TTITLE0=Tu Mirada
TTITLE1=Despierta
TTITLE2=Mi mal comportamiento
TTITLE3=Hoy ten miedo de mi
TTITLE4=Quien fuera
TTITLE5=Mujer que camina
TTITLE6=Lucia
TTITLE7=Brazos de sol
TTITLE8=Mentira
TTITLE9=El rey del universo
TTITLE10=No soy el aire
TTITLE11=Verte dormida
TTITLE12=Un tipo como yo
TTITLE13=Caballito de mar
TTITLE14=Ojos solitarios
EXTD=
EXTT0=
EXTT1=
EXTT2=
EXTT3=
EXTT4=
EXTT5=
EXTT6=
EXTT7=
EXTT8=
EXTT9=
EXTT10=
EXTT11=
EXTT12=
EXTT13=
EXTT14=
PLAYORDER=
